<?xml version="1.0" encoding="UTF-8" standalone="no"?>
<!DOCTYPE svg PUBLIC "-//W3C//DTD SVG 1.1//EN" "http://www.w3.org/Graphics/SVG/1.1/DTD/svg11.dtd">
<svg width="100%" height="100%" viewBox="0 0 100 100" version="1.1" xmlns="http://www.w3.org/2000/svg" xmlns:xlink="http://www.w3.org/1999/xlink" xml:space="preserve" xmlns:serif="http://www.serif.com/" style="fill-rule:evenodd;clip-rule:evenodd;stroke-linejoin:round;stroke-miterlimit:2;">
    <g transform="matrix(0.987223,0,0,0.987223,-1.74233,2.44039)">
        <path d="M2.997,38.263C7.164,25.583 19.108,16.416 33.176,16.416C38.307,16.416 43.156,17.636 47.448,19.801C47.597,13.56 48.924,7.419 52.193,2.386L68.249,2.551C64.56,9.208 59.283,14.344 56.819,19.939C61.177,17.688 66.122,16.416 71.362,16.416C86.385,16.416 98.986,26.87 102.28,40.893C102.625,43.271 102.803,45.702 102.803,48.175C102.803,75.986 80.224,98.566 52.412,98.566C24.6,98.566 2.021,75.986 2.021,48.175C2.021,44.782 2.357,41.466 2.997,38.263C4.117,32.661 6.166,27.394 8.977,22.628C12.316,16.967 16.73,12.013 21.939,8.05C17.143,11.7 13.02,16.189 9.79,21.298C9.512,21.736 9.241,22.18 8.977,22.628C6.165,27.395 4.116,32.662 2.997,38.263ZM102.277,40.872L102.241,40.629C102.253,40.71 102.265,40.791 102.277,40.872L102.28,40.894L102.28,40.893L102.277,40.872ZM102.222,40.505L102.236,40.599L102.198,40.349L102.222,40.505ZM102.173,40.193L102.191,40.306L102.152,40.062L102.173,40.193ZM102.123,39.881L102.145,40.017L102.104,39.772L102.123,39.881ZM102.07,39.57L102.097,39.731L102.054,39.48L102.07,39.57ZM101.673,37.524C101.742,37.843 101.808,38.164 101.871,38.485C101.933,38.807 101.993,39.13 102.05,39.455C101.937,38.807 101.811,38.163 101.673,37.524ZM101.649,37.411L101.668,37.498L101.614,37.252L101.649,37.411ZM101.581,37.105L101.605,37.211L101.551,36.972L101.581,37.105ZM101.512,36.8L101.541,36.927L101.486,36.689L101.512,36.8ZM101.441,36.496L101.476,36.646L101.419,36.404L101.441,36.496ZM101.367,36.192L101.411,36.372L101.349,36.119L101.367,36.192ZM100.919,34.489C100.995,34.758 101.069,35.027 101.14,35.298C101.212,35.569 101.281,35.841 101.348,36.114C101.214,35.569 101.071,35.027 100.919,34.489ZM100.89,34.386L100.913,34.466L100.844,34.226L100.89,34.386ZM100.804,34.088L100.832,34.185L100.765,33.954L100.804,34.088ZM100.717,33.79L100.751,33.906L100.683,33.678L100.717,33.79ZM100.627,33.493L100.669,33.631L100.599,33.401L100.627,33.493ZM100.536,33.197L100.587,33.361L100.513,33.122L100.536,33.197ZM99.985,31.531C100.076,31.791 100.165,32.051 100.252,32.313C100.339,32.575 100.424,32.838 100.506,33.102C100.341,32.575 100.167,32.051 99.985,31.531ZM99.952,31.436L99.977,31.508L99.895,31.277L99.952,31.436ZM99.849,31.146L99.88,31.234L99.8,31.013L99.849,31.146ZM99.743,30.856L99.782,30.962L99.702,30.745L99.743,30.856ZM99.636,30.567L99.683,30.692L99.602,30.475L99.636,30.567ZM99.528,30.279L99.584,30.427L99.499,30.204L99.528,30.279ZM98.877,28.655C98.983,28.906 99.086,29.157 99.188,29.41C99.289,29.662 99.389,29.916 99.486,30.17C99.291,29.661 99.088,29.156 98.877,28.655ZM98.841,28.568L98.867,28.631L98.774,28.411L98.841,28.568ZM98.72,28.286L98.754,28.365L98.664,28.156L98.72,28.286ZM98.598,28.005L98.639,28.1L98.55,27.896L98.598,28.005ZM98.474,27.724L98.524,27.837L98.434,27.634L98.474,27.724ZM98.349,27.445L98.409,27.578L98.315,27.371L98.349,27.445ZM98.222,27.166L98.294,27.325L98.195,27.108L98.222,27.166ZM97.602,25.869C97.702,26.071 97.801,26.273 97.898,26.476C97.995,26.679 98.09,26.882 98.185,27.086C97.996,26.678 97.802,26.272 97.602,25.869ZM97.562,25.787L97.589,25.843L97.486,25.635L97.562,25.787ZM97.425,25.514L97.46,25.584L97.361,25.388L97.425,25.514ZM97.287,25.242L97.33,25.327L97.232,25.136L97.287,25.242ZM97.147,24.971L97.199,25.071L97.101,24.883L97.147,24.971ZM97.005,24.701L97.067,24.819L96.967,24.629L97.005,24.701ZM96.862,24.432L96.936,24.571L96.832,24.375L96.862,24.432ZM96.167,23.177C96.276,23.368 96.384,23.56 96.491,23.752C96.598,23.945 96.704,24.139 96.809,24.333C96.6,23.945 96.386,23.56 96.167,23.177ZM96.123,23.1L96.15,23.148L96.038,22.954L96.123,23.1ZM95.97,22.837L96.005,22.898L95.899,22.716L95.97,22.837ZM95.816,22.575L95.86,22.649L95.756,22.473L95.816,22.575ZM95.661,22.313L95.714,22.402L95.609,22.229L95.661,22.313ZM95.504,22.053L95.567,22.158L95.461,21.984L95.504,22.053ZM95.345,21.794L95.42,21.916L95.311,21.739L95.345,21.794ZM95.185,21.536L95.275,21.682L95.158,21.494L95.185,21.536ZM94.577,20.587C94.672,20.732 94.767,20.878 94.861,21.024C94.954,21.17 95.047,21.317 95.14,21.464C94.955,21.169 94.767,20.877 94.577,20.587ZM94.529,20.513L94.555,20.553L94.437,20.374L94.529,20.513ZM94.361,20.261L94.396,20.313L94.284,20.145L94.361,20.261ZM94.192,20.009L94.236,20.073L94.126,19.912L94.192,20.009ZM94.022,19.758L94.075,19.836L93.966,19.677L94.022,19.758ZM93.85,19.508L93.913,19.6L93.803,19.441L93.85,19.508ZM93.676,19.259L93.751,19.366L93.638,19.206L93.676,19.259ZM93.501,19.012L93.59,19.137L93.472,18.971L93.501,19.012ZM92.84,18.104C92.94,18.238 93.04,18.374 93.139,18.509C93.238,18.645 93.336,18.781 93.434,18.918C93.239,18.645 93.04,18.373 92.84,18.104ZM92.787,18.033L92.811,18.066L92.688,17.902L92.787,18.033ZM92.605,17.791L92.638,17.835L92.522,17.682L92.605,17.791ZM92.421,17.55L92.464,17.606L92.35,17.458L92.421,17.55ZM92.236,17.31L92.288,17.378L92.176,17.233L92.236,17.31ZM92.05,17.072L92.112,17.151L91.999,17.008L92.05,17.072ZM91.862,16.834L91.935,16.927L91.821,16.783L91.862,16.834ZM91.673,16.598L91.759,16.706L91.641,16.559L91.673,16.598ZM91.482,16.363L91.585,16.49L91.46,16.335L91.482,16.363ZM91.097,15.896L91.29,16.129L91.097,15.896ZM90.902,15.665L90.924,15.691L90.799,15.543L90.902,15.665ZM90.706,15.434L90.738,15.471L90.619,15.333L90.706,15.434ZM90.509,15.205L90.55,15.252L90.434,15.119L90.509,15.205ZM90.31,14.977L90.361,15.035L90.246,14.904L90.31,14.977ZM90.11,14.75L90.171,14.819L90.056,14.69L90.11,14.75ZM89.909,14.525L89.981,14.605L89.865,14.476L89.909,14.525ZM89.706,14.3L89.79,14.393L89.672,14.263L89.706,14.3ZM89.502,14.077L89.6,14.184L89.477,14.05L89.502,14.077ZM88.882,13.415L88.901,13.435L88.775,13.303L88.882,13.415ZM88.673,13.197L88.702,13.227L88.582,13.103L88.673,13.197ZM88.462,12.98L88.501,13.02L88.383,12.9L88.462,12.98ZM88.25,12.764L88.299,12.814L88.182,12.696L88.25,12.764ZM88.037,12.55L88.096,12.609L87.98,12.493L88.037,12.55ZM87.823,12.337L87.892,12.406L87.776,12.29L87.823,12.337ZM87.607,12.125L87.688,12.204L87.57,12.089L87.607,12.125ZM87.39,11.914L87.483,12.005L87.363,11.888L87.39,11.914ZM87.172,11.705L87.28,11.809L87.155,11.689L87.172,11.705ZM86.952,11.497L87.097,11.634L86.808,11.362L86.952,11.497ZM86.732,11.29L86.748,11.305L86.624,11.19L86.732,11.29ZM86.51,11.085L86.536,11.109L86.416,10.999L86.51,11.085ZM86.287,10.881L86.323,10.914L86.205,10.807L86.287,10.881ZM86.062,10.678L86.109,10.72L85.991,10.615L86.062,10.678ZM85.837,10.477L85.894,10.528L85.776,10.423L85.837,10.477ZM85.61,10.276L85.677,10.336L85.56,10.233L85.61,10.276ZM85.382,10.078L85.46,10.146L85.342,10.044L85.382,10.078ZM85.153,9.88L85.242,9.957L85.123,9.856L85.153,9.88ZM84.922,9.684L85.023,9.77L84.903,9.669L84.922,9.684ZM84.691,9.49L84.806,9.586L84.56,9.381L84.691,9.49ZM84.458,9.296L84.471,9.307L84.351,9.209L84.458,9.296ZM84.224,9.104L84.247,9.124L84.129,9.028L84.224,9.104ZM83.989,8.914L84.023,8.941L83.905,8.847L83.989,8.914ZM83.752,8.725L83.797,8.76L83.679,8.666L83.752,8.725ZM83.515,8.537L83.57,8.58L83.452,8.488L83.515,8.537ZM83.276,8.351L83.342,8.402L83.224,8.31L83.276,8.351ZM83.037,8.166L83.113,8.224L82.994,8.133L83.037,8.166ZM82.796,7.982L82.882,8.048L82.764,7.958L82.796,7.982ZM82.554,7.8L82.649,7.872L82.533,7.784L82.554,7.8ZM23.647,6.806C23.432,6.956 23.218,7.107 23.007,7.259C22.795,7.412 22.584,7.566 22.375,7.722C22.794,7.41 23.218,7.105 23.647,6.806ZM82.311,7.619L82.413,7.695L82.301,7.612L82.311,7.619ZM82.067,7.44L82.076,7.447L81.966,7.367L82.067,7.44ZM81.821,7.262L81.842,7.277L81.726,7.194L81.821,7.262ZM81.575,7.086L81.606,7.108L81.489,7.025L81.575,7.086ZM81.327,6.911L81.369,6.94L81.251,6.857L81.327,6.911ZM81.079,6.737L81.131,6.774L81.012,6.691L81.079,6.737ZM80.829,6.565L80.892,6.608L80.773,6.527L80.829,6.565ZM80.578,6.394L80.652,6.444L80.533,6.364L80.578,6.394ZM25.407,5.633C25.227,5.748 25.048,5.863 24.87,5.98C24.692,6.096 24.515,6.214 24.338,6.332C24.692,6.094 25.048,5.862 25.407,5.633ZM80.326,6.225L80.409,6.281L80.292,6.203L80.326,6.225ZM80.073,6.058L80.165,6.118L80.05,6.042L80.073,6.058ZM79.819,5.891L79.914,5.954L79.807,5.884L79.819,5.891ZM79.564,5.727L79.597,5.748L79.478,5.672L79.564,5.727ZM79.308,5.564L79.325,5.574L79.214,5.505L79.308,5.564ZM25.862,5.347L25.685,5.457L25.862,5.347ZM79.051,5.402L79.079,5.42L78.963,5.348L79.051,5.402ZM78.793,5.242L78.832,5.266L78.714,5.193L78.793,5.242ZM78.533,5.083L78.584,5.114L78.464,5.041L78.533,5.083ZM78.273,4.926L78.334,4.963L78.215,4.891L78.273,4.926ZM26.801,4.777L26.551,4.926C26.638,4.874 26.725,4.822 26.812,4.77L26.801,4.777ZM78.012,4.77L78.083,4.813L77.964,4.742L78.012,4.77ZM77.75,4.616L77.831,4.664L77.713,4.595L77.75,4.616ZM77.486,4.464L77.575,4.515L77.461,4.449L77.486,4.464ZM27.449,4.4L27.278,4.499L27.449,4.4ZM77.222,4.313L77.313,4.365L77.208,4.305L77.222,4.313ZM27.935,4.126L27.768,4.219L27.935,4.126ZM76.957,4.163L77.013,4.195L76.904,4.134L76.957,4.163ZM28.182,3.989L28.011,4.083L28.182,3.989ZM76.69,4.015L76.704,4.023L76.6,3.966L76.69,4.015ZM76.423,3.869L76.448,3.883L76.334,3.821L76.423,3.869ZM28.664,3.727L28.401,3.869C28.49,3.821 28.58,3.773 28.669,3.724L28.664,3.727ZM76.155,3.724L76.191,3.744L76.074,3.681L76.155,3.724ZM75.886,3.581L75.933,3.607L75.814,3.544L75.886,3.581ZM29.075,3.51L28.903,3.6L29.075,3.51ZM75.616,3.44L75.674,3.47L75.554,3.408L75.616,3.44ZM75.344,3.3L75.414,3.335L75.294,3.274L75.344,3.3ZM75.072,3.161L75.151,3.201L75.033,3.141L75.072,3.161ZM74.799,3.024L74.886,3.068L74.771,3.011L74.799,3.024ZM74.525,2.889L74.615,2.934L74.509,2.881L74.525,2.889ZM30.575,2.755L30.387,2.846L30.759,2.667L30.575,2.755ZM74.251,2.756L74.318,2.788L74.246,2.753L74.251,2.756ZM73.975,2.624L73.985,2.629L73.89,2.584L73.975,2.624ZM73.698,2.493L73.72,2.504L73.609,2.452L73.698,2.493ZM73.42,2.365L73.454,2.38L73.337,2.327L73.42,2.365ZM31.749,2.208L31.602,2.274L31.749,2.208ZM73.142,2.238L73.187,2.258L73.067,2.204L73.142,2.238ZM72.862,2.112L72.919,2.138L72.797,2.084L72.862,2.112ZM32.273,1.975L32.126,2.04L32.273,1.975ZM72.582,1.989L72.649,2.018L72.528,1.965L72.582,1.989ZM32.531,1.863L32.386,1.926L32.672,1.803L32.531,1.863ZM72.301,1.866L72.378,1.9L72.258,1.848L72.301,1.866ZM72.019,1.746L72.104,1.783L71.987,1.733L72.019,1.746ZM71.736,1.627L71.825,1.665L71.716,1.619L71.736,1.627ZM33.19,1.585L33.049,1.644L33.19,1.585ZM71.452,1.51L71.526,1.541L71.444,1.507L71.452,1.51ZM71.167,1.395L71.174,1.398L71.094,1.366L71.167,1.395ZM70.882,1.281L70.901,1.289L70.792,1.246L70.882,1.281ZM70.595,1.169L70.626,1.181L70.509,1.136L70.595,1.169ZM70.308,1.059L70.351,1.075L70.23,1.029L70.308,1.059ZM70.02,0.95L70.074,0.971L69.951,0.925L70.02,0.95ZM69.731,0.843L69.796,0.868L69.673,0.822L69.731,0.843ZM69.441,0.738L69.517,0.766L69.395,0.722L69.441,0.738ZM69.15,0.635L69.235,0.665L69.116,0.623L69.15,0.635ZM68.859,0.533L68.948,0.564L68.837,0.525L68.859,0.533ZM68.567,0.433L68.647,0.46L68.557,0.43L68.567,0.433ZM67.98,0.238L67.996,0.243L67.892,0.21L67.98,0.238ZM36.936,0.209L36.833,0.242L36.936,0.209ZM67.685,0.143L67.714,0.153L67.597,0.116L67.685,0.143ZM37.233,0.114L37.111,0.153L37.233,0.114ZM37.517,0.025L37.389,0.065L37.517,0.025ZM67.39,0.051L67.43,0.063L67.308,0.025L67.39,0.051ZM37.798,-0.061L37.669,-0.022L37.798,-0.061ZM67.094,-0.041L67.146,-0.025L67.022,-0.062L67.094,-0.041ZM38.079,-0.145L37.951,-0.107L38.079,-0.145ZM66.797,-0.13L66.861,-0.111L66.735,-0.148L66.797,-0.13ZM66.499,-0.218L66.574,-0.196L66.449,-0.232L66.499,-0.218ZM38.641,-0.308L38.532,-0.277L38.641,-0.308ZM66.201,-0.304L66.284,-0.279L66.163,-0.314L66.201,-0.304ZM65.901,-0.388L65.991,-0.362L65.876,-0.395L65.901,-0.388ZM65.601,-0.47L65.686,-0.447L65.588,-0.473L65.601,-0.47ZM39.312,-0.494L39.199,-0.464L39.312,-0.494ZM64.999,-0.629L65.012,-0.626L64.914,-0.651L64.999,-0.629ZM64.697,-0.706L64.723,-0.699L64.607,-0.728L64.697,-0.706ZM64.394,-0.781L64.432,-0.771L64.31,-0.801L64.394,-0.781ZM40.753,-0.859L40.647,-0.833L40.753,-0.859ZM64.091,-0.854L64.141,-0.842L64.015,-0.872L64.091,-0.854ZM63.786,-0.925L63.849,-0.911L63.721,-0.94L63.786,-0.925ZM41.038,-0.925L41.007,-0.918L41.061,-0.931L41.038,-0.925ZM63.481,-0.995L63.555,-0.978L63.428,-1.007L63.481,-0.995ZM63.176,-1.062L63.259,-1.044L63.134,-1.071L63.176,-1.062ZM62.869,-1.128L62.959,-1.109L62.84,-1.134L62.869,-1.128ZM62.562,-1.192L62.651,-1.174L62.546,-1.195L62.562,-1.192ZM42.317,-1.203L42.194,-1.178L42.317,-1.203ZM61.946,-1.314L61.956,-1.312L61.867,-1.329L61.946,-1.314ZM43.192,-1.373L43.137,-1.363L43.192,-1.373ZM61.637,-1.373L61.66,-1.368L61.545,-1.389L61.637,-1.373ZM61.327,-1.429L61.363,-1.422L61.239,-1.444L61.327,-1.429ZM43.576,-1.443L43.482,-1.426L43.576,-1.443ZM61.017,-1.483L61.065,-1.475L60.937,-1.497L61.017,-1.483ZM60.706,-1.536L60.766,-1.526L60.637,-1.547L60.706,-1.536ZM60.394,-1.587L60.466,-1.575L60.336,-1.596L60.394,-1.587ZM44.488,-1.596L44.366,-1.576L44.488,-1.596ZM60.082,-1.635L60.164,-1.623L60.036,-1.642L60.082,-1.635ZM59.769,-1.682L59.859,-1.669L59.736,-1.687L59.769,-1.682ZM59.455,-1.727L59.547,-1.714L59.435,-1.73L59.455,-1.727ZM59.141,-1.77L59.21,-1.761L59.134,-1.771L59.141,-1.77ZM46.081,-1.822L45.969,-1.808L46.081,-1.822ZM58.826,-1.811L58.833,-1.811L58.758,-1.82L58.826,-1.811ZM46.388,-1.859L46.268,-1.845L46.388,-1.859ZM58.511,-1.851L58.531,-1.848L58.419,-1.861L58.511,-1.851ZM58.195,-1.888L58.228,-1.884L58.104,-1.898L58.195,-1.888ZM57.878,-1.923L57.924,-1.918L57.795,-1.932L57.878,-1.923ZM47.292,-1.959L47.18,-1.947L47.292,-1.959ZM57.561,-1.956L57.62,-1.95L57.488,-1.963L57.561,-1.956ZM57.243,-1.987L57.314,-1.981L57.182,-1.993L57.243,-1.987ZM56.925,-2.017L57.006,-2.009L56.876,-2.021L56.925,-2.017ZM56.606,-2.044L56.696,-2.036L56.57,-2.047L56.606,-2.044ZM56.287,-2.07L56.381,-2.062L56.263,-2.071L56.287,-2.07ZM55.967,-2.093L56.048,-2.087L55.957,-2.094L55.967,-2.093ZM49.227,-2.117L49.105,-2.109L49.227,-2.117ZM49.531,-2.135L49.416,-2.129L49.531,-2.135ZM55.325,-2.134L55.342,-2.133L55.233,-2.139L55.325,-2.134ZM55.003,-2.151L55.034,-2.149L54.91,-2.155L55.003,-2.151ZM54.681,-2.166L54.725,-2.164L54.594,-2.17L54.681,-2.166ZM54.359,-2.18L54.415,-2.177L54.282,-2.182L54.359,-2.18ZM54.035,-2.191L54.104,-2.188L53.97,-2.193L54.035,-2.191ZM53.712,-2.2L53.792,-2.198L53.658,-2.201L53.712,-2.2ZM53.388,-2.207L53.477,-2.205L53.347,-2.208L53.388,-2.207ZM53.063,-2.212L53.158,-2.211L53.036,-2.213L53.063,-2.212ZM52.738,-2.216L52.827,-2.215L52.724,-2.216L52.738,-2.216Z" style="fill:rgb(255,0,0);"/>
    </g>
    <g transform="matrix(0.771761,0,0,0.771761,10.7726,4.25807)">
        <text x="19.719px" y="87.366px" style="font-family:'MVBoli', 'MV Boli';font-style:italic;font-size:59.806px;fill:white;stroke:white;stroke-width:13.1px;">J</text>
    </g>
</svg>
