<?xml version="1.0" encoding="UTF-8" standalone="no"?>
<!DOCTYPE svg PUBLIC "-//W3C//DTD SVG 1.1//EN" "http://www.w3.org/Graphics/SVG/1.1/DTD/svg11.dtd">
<svg width="100%" height="100%" viewBox="0 0 400 400" version="1.1" xmlns="http://www.w3.org/2000/svg" xmlns:xlink="http://www.w3.org/1999/xlink" xml:space="preserve" xmlns:serif="http://www.serif.com/" style="fill-rule:evenodd;clip-rule:evenodd;stroke-linecap:round;stroke-linejoin:round;stroke-miterlimit:1.5;">
    <g transform="matrix(0.919245,-0.224088,0.224088,0.919245,-81.0304,28.4941)">
        <path d="M39.342,260.592L63.881,189.218L88.195,189.218L112.958,260.592L93.461,260.592L89.876,247.707L62.312,247.707L58.615,260.592L39.342,260.592ZM73.741,210.283L66.458,233.925L85.842,233.925L78.559,210.283C78.186,209.162 77.831,207.986 77.495,206.753C77.158,205.521 76.878,204.307 76.654,203.112C76.505,202.664 76.393,202.234 76.318,201.823C76.243,201.412 76.169,201.02 76.094,200.647C76.019,201.02 75.926,201.412 75.814,201.823C75.702,202.234 75.608,202.664 75.534,203.112C75.459,203.261 75.422,203.392 75.422,203.504C75.422,203.616 75.384,203.747 75.31,203.896C75.086,205.017 74.843,206.1 74.581,207.145C74.32,208.191 74.04,209.237 73.741,210.283Z" style="fill:rgb(100,179,114);fill-rule:nonzero;"/>
        <rect x="121.921" y="185.072" width="17.367" height="75.52" style="fill:rgb(100,179,114);fill-rule:nonzero;"/>
        <path d="M203.604,211.403L203.604,260.368C203.604,269.033 200.84,274.822 195.312,277.735C189.785,280.648 183.174,282.105 175.48,282.105C174.733,282.105 173.986,282.086 173.239,282.049C172.492,282.012 171.745,281.956 170.998,281.881C166.143,281.433 161.661,280.032 157.552,277.679C153.444,275.326 151.24,271.349 150.942,265.746L168.869,265.858C169.243,267.427 170.158,268.566 171.614,269.276C173.071,269.985 174.621,270.377 176.264,270.452L176.712,270.452C177.011,270.452 177.347,270.434 177.721,270.396C178.094,270.359 178.468,270.34 178.841,270.34C179.364,270.265 179.887,270.172 180.41,270.06C180.933,269.948 181.381,269.855 181.755,269.78C183.697,269.033 185.023,267.707 185.732,265.802C186.442,263.897 186.871,261.937 187.021,259.92L187.021,252.188C184.929,255.326 182.464,257.585 179.626,258.967C176.787,260.349 173.687,261.04 170.326,261.04C169.728,261.04 169.075,261.04 168.365,261.04C167.655,261.04 166.927,260.966 166.18,260.816C160.354,260.144 156.021,257.585 153.183,253.141C150.344,248.696 148.701,243.86 148.252,238.631C148.252,238.033 148.234,237.473 148.196,236.95C148.159,236.427 148.14,235.904 148.14,235.381C148.14,235.008 148.159,234.597 148.196,234.149C148.234,233.701 148.29,233.252 148.365,232.804L148.365,232.412C148.365,232.3 148.402,232.169 148.477,232.02C148.477,231.646 148.514,231.254 148.589,230.843C148.663,230.433 148.701,230.04 148.701,229.667C149.597,223.691 152.025,218.873 155.984,215.213C159.943,211.553 164.985,209.723 171.11,209.723L171.446,209.723C174.957,209.723 178.076,210.582 180.802,212.3C183.529,214.018 185.788,216.296 187.581,219.135L187.581,211.403L203.604,211.403ZM177.273,223.504C173.613,223.504 170.699,224.718 168.533,227.146C166.367,229.574 165.284,232.244 165.284,235.157C165.284,238.519 166.479,241.357 168.869,243.673C171.26,245.989 174.061,247.146 177.273,247.146C180.858,247.146 183.547,245.951 185.34,243.561C187.133,241.17 188.067,238.556 188.141,235.718L188.141,234.709C187.992,231.945 187.021,229.387 185.228,227.034C183.435,224.681 180.784,223.504 177.273,223.504Z" style="fill:rgb(100,179,114);fill-rule:nonzero;"/>
        <path d="M267.807,239.303L230.383,239.303C230.607,242.664 231.541,245.447 233.184,247.651C234.828,249.854 237.48,251.031 241.14,251.18L241.476,251.18C241.476,251.255 241.495,251.292 241.532,251.292L241.7,251.292C243.941,251.292 245.976,250.807 247.807,249.835C249.637,248.864 251.149,247.37 252.344,245.354L265.454,250.62C263.512,254.654 260.468,257.623 256.322,259.528C252.176,261.432 247.788,262.422 243.157,262.497L242.204,262.497C242.092,262.497 241.961,262.497 241.812,262.497C237.629,262.422 233.558,261.6 229.599,260.032C225.64,258.463 222.465,256.222 220.075,253.309C218.282,251.217 216.844,248.846 215.761,246.194C214.678,243.542 214.062,240.834 213.912,238.071L213.912,236.838C213.912,236.614 213.931,236.352 213.968,236.054C214.006,235.755 214.062,235.456 214.136,235.157C214.136,234.933 214.155,234.672 214.192,234.373C214.23,234.074 214.248,233.813 214.248,233.589C215.07,226.193 218.133,220.367 223.436,216.109C228.74,211.851 234.753,209.723 241.476,209.723C242.895,209.723 244.296,209.816 245.678,210.003C247.06,210.189 248.46,210.47 249.879,210.843C256.901,212.86 261.607,216.501 263.997,221.768C266.388,227.034 267.658,232.879 267.807,239.303ZM240.916,220.255C237.928,220.255 235.668,221.114 234.137,222.832C232.605,224.55 231.541,226.791 230.943,229.555L250.776,229.555C250.402,226.94 249.375,224.756 247.694,223C246.014,221.245 243.754,220.33 240.916,220.255Z" style="fill:rgb(100,179,114);fill-rule:nonzero;"/>
        <path d="M278.788,185.072L295.259,185.072L295.259,210.619C295.259,212.188 295.24,213.7 295.203,215.157C295.165,216.613 295.072,218.089 294.922,219.583C297.014,216.296 299.292,213.812 301.757,212.132C304.222,210.451 307.509,209.61 311.618,209.61C318.49,209.76 323.812,212.094 327.584,216.613C331.357,221.133 333.429,226.604 333.803,233.028L333.803,237.51C333.653,243.187 332.16,248.435 329.321,253.253C326.482,258.071 322.038,260.891 315.987,261.712C315.166,261.862 314.363,261.974 313.578,262.049C312.794,262.123 312.028,262.161 311.281,262.161C307.845,262.161 304.764,261.32 302.037,259.64C299.311,257.959 296.865,255.625 294.698,252.637L294.698,260.592L278.788,260.592L278.788,185.072ZM305.455,247.146C308.742,247.146 311.468,245.951 313.634,243.561C315.801,241.17 316.884,238.444 316.884,235.381L316.884,234.709C316.734,231.945 315.707,229.387 313.802,227.034C311.898,224.681 309.115,223.504 305.455,223.504C301.944,223.504 299.255,224.681 297.387,227.034C295.52,229.387 294.512,231.945 294.362,234.709L294.362,235.718C294.437,238.556 295.408,241.17 297.275,243.561C299.143,245.951 301.869,247.146 305.455,247.146Z" style="fill:rgb(100,179,114);fill-rule:nonzero;"/>
        <path d="M345.232,260.592L345.232,211.403L361.591,211.403L361.591,222.832C362.487,220.666 363.645,218.686 365.064,216.894C366.483,215.101 368.239,213.569 370.33,212.3C371.6,211.478 372.945,210.936 374.364,210.675C375.783,210.413 377.203,210.283 378.622,210.283C378.995,210.283 379.387,210.301 379.798,210.339C380.209,210.376 380.639,210.395 381.087,210.395C381.535,210.395 381.965,210.413 382.375,210.451C382.786,210.488 383.178,210.507 383.552,210.507L381.759,226.306C381.61,226.231 381.423,226.175 381.199,226.137C380.975,226.1 380.788,226.081 380.639,226.081C379.668,225.857 378.734,225.689 377.837,225.577C376.941,225.465 376.119,225.409 375.372,225.409C371.563,225.409 368.463,226.623 366.073,229.051C363.682,231.478 362.487,235.157 362.487,240.087L362.487,260.592L345.232,260.592Z" style="fill:rgb(100,179,114);fill-rule:nonzero;"/>
        <path d="M445.85,211.403L445.85,260.368L429.827,260.368L429.827,252.637C427.512,255.774 424.972,258.146 422.208,259.752C419.444,261.358 416.232,262.161 412.572,262.161C411.975,262.161 411.321,262.161 410.611,262.161C409.902,262.161 409.173,262.086 408.426,261.937C402.824,261.115 398.622,258.519 395.821,254.149C393.02,249.779 391.358,245.017 390.835,239.863C390.76,239.191 390.704,238.537 390.667,237.902C390.63,237.268 390.611,236.651 390.611,236.054L390.611,235.325C390.611,235.064 390.648,234.784 390.723,234.485C390.723,234.037 390.76,233.551 390.835,233.028C390.91,232.505 390.947,231.983 390.947,231.46C391.022,231.236 391.078,231.012 391.115,230.787C391.152,230.563 391.171,230.339 391.171,230.115C391.993,224.139 394.364,219.247 398.286,215.437C402.208,211.627 407.231,209.723 413.356,209.723C417.166,209.723 420.359,210.563 422.937,212.244C425.514,213.924 427.811,216.296 429.827,219.359L429.827,211.403L445.85,211.403ZM407.866,235.381C408.016,238.369 409.005,241.077 410.835,243.505C412.666,245.932 415.411,247.146 419.071,247.146C422.731,247.146 425.495,245.932 427.362,243.505C429.23,241.077 430.164,238.407 430.164,235.493L430.164,234.597C429.939,231.833 428.894,229.293 427.026,226.978C425.159,224.662 422.507,223.504 419.071,223.504C415.485,223.504 412.759,224.681 410.891,227.034C409.024,229.387 408.016,231.945 407.866,234.709L407.866,235.381Z" style="fill:rgb(100,179,114);fill-rule:nonzero;"/>
    </g>
    <path d="M353.838,323.429C317.67,368.435 262.175,397.262 200,397.262C171.532,397.262 144.464,391.218 120.004,380.342L353.838,323.429ZM91.789,364.919C82.233,358.633 73.259,351.541 64.959,343.74L386.08,265.582C382.253,276.43 377.503,286.846 371.921,296.737L91.789,364.919ZM397.261,199.255C397.262,199.499 397.262,199.75 397.262,200C397.262,214.284 395.741,228.215 392.85,241.643L47.929,325.594C38.882,314.655 30.993,302.726 24.447,289.995L397.261,199.255ZM4.182,176.032C16.022,78.449 99.239,2.738 200,2.738C267.609,2.738 327.32,36.825 362.867,88.731L4.182,176.032Z" style="fill:rgb(100,179,114);stroke:rgb(237,237,237);stroke-width:1px;"/>
</svg>
