<?xml version="1.0" encoding="UTF-8" standalone="no"?>
<!DOCTYPE svg PUBLIC "-//W3C//DTD SVG 1.1//EN" "http://www.w3.org/Graphics/SVG/1.1/DTD/svg11.dtd">
<svg width="100%" height="100%" viewBox="0 0 400 400" version="1.1" xmlns="http://www.w3.org/2000/svg" xmlns:xlink="http://www.w3.org/1999/xlink" xml:space="preserve" xmlns:serif="http://www.serif.com/" style="fill-rule:evenodd;clip-rule:evenodd;stroke-linecap:round;stroke-linejoin:round;stroke-miterlimit:1.5;">
    <g transform="matrix(1.32371,0,0,1.32371,-17.2644,-120.141)">
        <circle cx="164.133" cy="241.851" r="149.022" style="fill:white;stroke:rgb(237,237,237);stroke-width:0.76px;"/>
    </g>
    <path d="M200,2.738C308.872,2.738 397.262,91.128 397.262,200C397.262,308.872 308.872,397.262 200,397.262C91.128,397.262 2.738,308.872 2.738,200C2.738,91.128 91.128,2.738 200,2.738ZM200,17.435C300.761,17.435 382.565,99.239 382.565,200C382.565,300.761 300.761,382.565 200,382.565C99.239,382.565 17.435,300.761 17.435,200C17.435,99.239 99.239,17.435 200,17.435Z" style="fill:rgb(255,193,204);stroke:white;stroke-width:1px;"/>
    <path d="M198.696,2.742C199.129,2.739 199.565,2.738 200,2.738C308.872,2.738 397.262,91.128 397.262,200C397.262,308.872 308.872,397.262 200,397.262C199.565,397.262 199.129,397.261 198.696,397.258L198.696,2.742ZM3.651,180.923L3.651,219.077C3.047,212.797 2.738,206.434 2.738,200C2.738,193.566 3.047,187.203 3.651,180.923Z" style="fill:rgb(255,193,204);"/>
    <g transform="matrix(1,0,0,1,-41.3723,27.6159)">
        <path d="M70.047,161.846L70.047,146.55L80.4,146.55C86.674,146.55 89.263,149.766 89.263,154.08C89.263,158.63 86.674,161.846 80.4,161.846L70.047,161.846ZM70.047,189.586L70.047,170.694L82.126,170.694C92.317,170.694 98.816,163.881 98.816,154.394C98.816,144.984 92.317,137.545 82.126,137.545L59.161,137.545L59.161,189.586L70.047,189.586Z" style="fill:rgb(255,193,204);fill-rule:nonzero;stroke:white;stroke-width:1px;stroke-linecap:butt;stroke-miterlimit:2;"/>
        <path d="M111.437,189.586L111.437,169.518C111.437,163.325 114.494,160.19 120.765,160.19C121.706,160.19 122.647,160.268 123.587,160.425L123.587,150.009L122.255,150.009C118.1,150.009 114.181,150.479 110.811,155.647L110.811,151.028L101.256,151.028L101.256,189.586L111.437,189.586Z" style="fill:rgb(255,193,204);fill-rule:nonzero;"/>
        <path d="M133.7,166.549C134.092,161.212 137.465,158.073 141.544,158.073C145.544,158.073 149.309,160.82 149.466,166.549L133.7,166.549ZM159.96,172.967C159.96,157.682 153.695,150.009 141.857,150.009C130.019,150.009 123.205,157.682 123.205,169.602C123.205,183.555 129.627,190.605 142.485,190.605C150.719,190.605 157.062,186.14 159.412,178.229L148.917,178.229C148.211,180.893 145.309,182.54 142.014,182.54C136.994,182.54 133.7,178.774 133.386,172.967L159.96,172.967Z" style="fill:rgb(255,193,204);fill-rule:nonzero;"/>
        <rect x="162.473" y="161.532" width="19.441" height="7.908" style="fill:rgb(255,193,204);fill-rule:nonzero;"/>
        <path d="M209.194,169.92L195.946,169.92L202.609,149.225L202.687,149.225L209.194,169.92ZM227.458,189.586L209.115,137.545L196.494,137.545L177.916,189.586L189.439,189.586L193.124,178.846L212.329,178.846L215.621,189.586L227.458,189.586Z" style="fill:rgb(255,193,204);fill-rule:nonzero;"/>
        <rect x="230.128" y="136.918" width="10.181" height="52.668" style="fill:rgb(255,193,204);fill-rule:nonzero;stroke:white;stroke-width:1px;stroke-linecap:butt;stroke-miterlimit:2;"/>
        <path d="M263.125,181.913C258.106,181.913 254.419,177.522 254.419,170.62C254.419,162.7 257.4,158.857 263.125,158.857C268.929,158.857 271.832,162.857 271.832,171.248C271.832,177.757 268.067,181.913 263.125,181.913ZM271.518,190.762C271.518,195.863 267.204,199.081 261.792,199.081C256.694,199.081 253.322,196.334 253.322,191.704L243.847,191.704C243.847,201.665 251.756,207.85 262.498,207.85C273.241,207.85 281.699,201.586 281.699,189.978L281.699,151.028L271.518,151.028L271.518,155.804C269.086,151.888 265.557,150.009 260.694,150.009C251.364,150.009 243.847,158.074 243.847,170.072C243.847,180.188 248.232,189.899 260.93,189.899C265.949,189.899 270.106,187.864 271.518,184.419L271.518,190.762Z" style="fill:white;fill-rule:nonzero;"/>
        <path d="M295.809,166.549C296.201,161.212 299.574,158.073 303.653,158.073C307.653,158.073 311.418,160.82 311.575,166.549L295.809,166.549ZM322.069,172.967C322.069,157.682 315.804,150.009 303.967,150.009C292.128,150.009 285.314,157.682 285.314,169.602C285.314,183.555 291.736,190.605 304.594,190.605C312.828,190.605 319.172,186.14 321.521,178.229L311.026,178.229C310.32,180.893 307.418,182.54 304.123,182.54C299.103,182.54 295.809,178.774 295.495,172.967L322.069,172.967Z" style="fill:white;fill-rule:nonzero;"/>
        <path d="M343.866,182.305C339.004,182.305 335.239,177.757 335.239,171.248C335.239,162.857 338.141,158.7 343.788,158.7C349.749,158.7 352.573,162.7 352.573,170.62C352.573,177.522 348.965,182.305 343.866,182.305ZM335.396,189.586L335.474,184.882C337.905,188.804 341.513,190.605 346.219,190.605C355.94,190.605 362.91,182.932 362.91,169.915C362.91,158.231 357.037,150.009 347.082,150.009C342.298,150.009 338.533,151.966 335.631,156.038L335.631,136.918L325.607,136.918L325.607,189.586L335.396,189.586Z" style="fill:white;fill-rule:nonzero;"/>
        <path d="M376.863,189.586L376.863,169.518C376.863,163.325 379.921,160.19 386.192,160.19C387.132,160.19 388.073,160.268 389.014,160.425L389.014,150.009L387.681,150.009C383.527,150.009 379.607,150.479 376.237,155.647L376.237,151.028L366.683,151.028L366.683,189.586L376.863,189.586Z" style="fill:white;fill-rule:nonzero;"/>
        <path d="M413.324,174.932C413.246,179.481 409.324,183.324 404.068,183.324C400.852,183.324 399.126,181.913 399.126,179.011C399.126,175.717 401.009,174.07 406.813,172.972C410.579,172.266 412.383,171.717 413.403,170.697L413.324,174.932ZM423.584,189.586L423.584,165.207C423.584,155.492 419.354,150.009 407.127,150.009C394.74,150.009 390.355,155.57 390.198,163.56L399.675,163.56C400.146,160.112 402.028,157.838 406.657,157.838C410.657,157.838 413.167,159.328 413.167,161.837C413.167,164.504 411.755,165.523 406.657,166.229C396.385,167.641 388.945,168.895 388.945,180.031C388.945,186.299 393.018,190.605 401.793,190.605C406.97,190.605 411.049,188.804 413.481,186.143C413.559,187.316 413.794,188.647 414.107,189.586L423.584,189.586Z" style="fill:white;fill-rule:nonzero;"/>
    </g>
</svg>
